<svg xmlns="http://www.w3.org/2000/svg" viewBox="0 0 256 256" role="img" aria-labelledby="title desc">
  <title id="title">Pikine Optique Vision</title>
  <desc id="desc">Logo circulaire avec monture de lunettes stylisée</desc>
  <defs>
    <linearGradient id="bg" x1="36" y1="28" x2="220" y2="228" gradientUnits="userSpaceOnUse">
      <stop stop-color="#0f4c5c"/>
      <stop offset="1" stop-color="#2f7d8c"/>
    </linearGradient>
    <linearGradient id="gold" x1="58" y1="86" x2="198" y2="168" gradientUnits="userSpaceOnUse">
      <stop stop-color="#f3d58b"/>
      <stop offset="1" stop-color="#c89b3c"/>
    </linearGradient>
  </defs>
  <rect width="256" height="256" rx="56" fill="#0c1b2f"/>
  <circle cx="128" cy="128" r="98" fill="url(#bg)" opacity=".94"/>
  <circle cx="128" cy="128" r="104" fill="none" stroke="url(#gold)" stroke-width="10"/>
  <path d="M55 126c10-22 30-35 55-35 18 0 32 7 41 20 9-13 23-20 41-20 25 0 45 13 55 35" fill="none" stroke="#f8e7b5" stroke-width="12" stroke-linecap="round" stroke-linejoin="round"/>
  <circle cx="92" cy="139" r="36" fill="rgba(255,255,255,.08)" stroke="url(#gold)" stroke-width="12"/>
  <circle cx="164" cy="139" r="36" fill="rgba(255,255,255,.08)" stroke="url(#gold)" stroke-width="12"/>
  <path d="M128 139h0" stroke="#f8e7b5" stroke-width="14" stroke-linecap="round"/>
  <path d="M76 187c28 22 76 25 104 0" fill="none" stroke="#f8e7b5" stroke-width="8" stroke-linecap="round" opacity=".9"/>
  <text x="128" y="58" text-anchor="middle" font-family="Inter, Arial, sans-serif" font-size="27" font-weight="800" fill="#fff">POV</text>
</svg>
